<?xml version="1.0" standalone="no"?><!DOCTYPE svg PUBLIC "-//W3C//DTD SVG 1.1//EN" "http://www.w3.org/Graphics/SVG/1.1/DTD/svg11.dtd"><svg t="1624006799598" class="icon" viewBox="0 0 1024 1024" version="1.1" xmlns="http://www.w3.org/2000/svg" p-id="14960" xmlns:xlink="http://www.w3.org/1999/xlink" width="32" height="32"><defs><style type="text/css"></style></defs><path d="M388.08 184.07v203h-203v-203h203m43-86h-289c-23.75 0-43 19.25-43 43v289c0 23.75 19.25 43 43 43h289c23.75 0 43-19.25 43-43v-289c0-23.75-19.26-43-43-43zM388.08 610.11v203h-203v-203h203m43-86h-289c-23.75 0-43 19.25-43 43v289c0 23.75 19.25 43 43 43h289c23.75 0 43-19.25 43-43v-289c0-23.75-19.26-43-43-43zM813.26 184.07v203h-203v-203h203m43-86h-289c-23.75 0-43 19.25-43 43v289c0 23.75 19.25 43 43 43h289c23.75 0 43-19.25 43-43v-289c0-23.75-19.25-43-43-43z" fill="#380F0A" p-id="14961"></path><path d="M910.05 838.93l-51.33-51.32c12.84-24.8 20.08-52.95 20.08-82.8 0-99.69-80.81-180.5-180.5-180.5s-180.5 80.81-180.5 180.5 80.81 180.5 180.5 180.5c32.74 0 63.45-8.72 89.92-23.96l49.7 49.71c9.92 9.92 22.99 14.87 36.07 14.87 13.07 0 26.14-4.95 36.06-14.87 19.83-19.84 19.83-52.29 0-72.13zM698.3 799.31c-52.11 0-94.5-42.39-94.5-94.5s42.39-94.5 94.5-94.5 94.5 42.39 94.5 94.5-42.39 94.5-94.5 94.5z" fill="#380F0A" p-id="14962"></path></svg>