<?xml version="1.0" encoding="UTF-8"?>
<svg width="44px" height="44px" viewBox="0 0 44 44" version="1.1" xmlns="http://www.w3.org/2000/svg" xmlns:xlink="http://www.w3.org/1999/xlink">
    <title>icon/44+back-黑</title>
    <g id="icon/44+back-黑" stroke="none" stroke-width="1" fill="none" fill-rule="evenodd">
        <rect id="矩形" stroke="#979797" fill="#D8D8D8" opacity="0" x="0.5" y="0.5" width="43" height="43"></rect>
        <path d="M0.430820656,21.4438682 L0.465547715,21.4094156 C0.514727056,21.3608911 0.566420769,21.316452 0.620205463,21.2760984 L12.6391846,9.41865973 C13.2233024,8.84231895 14.1621234,8.84231895 14.7462412,9.41865973 L14.7668573,9.43900139 C15.3521925,10.0165433 15.3585102,10.9592415 14.7809683,11.5445767 L14.7668573,11.5586876 L14.7668573,11.5586876 L5.19664806,21.0004041 L37.5011555,21.0011555 C38.3289445,21.0011555 39,21.672211 39,22.5 C39,23.327789 38.3289445,23.9988445 37.5011555,23.9988445 L5.19564806,23.9984041 L14.7668573,33.4413124 C15.3521925,34.0188543 15.3585102,34.9615525 14.7809683,35.5468877 L14.7668573,35.5609986 L14.7668573,35.5609986 L14.7462412,35.5813403 C14.1621234,36.157681 13.2233024,36.157681 12.6391846,35.5813403 L0.616249638,23.7209234 C0.563885169,23.6813645 0.513520201,23.6379181 0.465547715,23.5905844 L0.444931577,23.5702427 C0.152263986,23.2814718 0.00435077224,22.9014117 0.00179719777,22.5203776 L0.00179719777,22.4995783 C-0.000756376697,22.1185441 0.142049688,21.7365358 0.430820656,21.4438682 Z" id="back" fill="#380F0A"></path>
    </g>
</svg>