<?xml version="1.0" standalone="no"?><!DOCTYPE svg PUBLIC "-//W3C//DTD SVG 1.1//EN" "http://www.w3.org/Graphics/SVG/1.1/DTD/svg11.dtd"><svg t="1566547801919" class="icon" viewBox="0 0 1024 1024" version="1.1" xmlns="http://www.w3.org/2000/svg" p-id="5371" xmlns:xlink="http://www.w3.org/1999/xlink" width="200" height="200"><defs><style type="text/css"></style></defs><path d="M774.302328 529.167428H223.575805c-9.467751 0-17.110393-7.642642-17.110393-17.110393s7.642642-17.110393 17.110393-17.110394h550.726523c9.467751 0 17.110393 7.642642 17.110393 17.110394s-7.642642 17.110393-17.110393 17.110393zM635.594074 435.060265H362.284059c-9.467751 0-17.110393-7.642642-17.110393-17.110393s7.642642-17.110393 17.110393-17.110393h273.310015c9.467751 0 17.110393 7.642642 17.110393 17.110393s-7.642642 17.110393-17.110393 17.110393zM635.594074 623.274591H362.284059c-9.467751 0-17.110393-7.642642-17.110393-17.110394s7.642642-17.110393 17.110393-17.110393h273.310015c9.467751 0 17.110393 7.642642 17.110393 17.110393s-7.642642 17.110393-17.110393 17.110394zM153.309123 386.466748c-9.467751 0-17.110393-7.642642-17.110393-17.110393V184.792247c0-9.467751 7.642642-17.110393 17.110393-17.110393h208.974936c9.467751 0 17.110393 7.642642 17.110393 17.110393s-7.642642 17.110393-17.110393 17.110393H170.419517v167.453715c0 9.467751-7.642642 17.110393-17.110394 17.110393zM844.56901 386.466748c-9.467751 0-17.110393-7.642642-17.110394-17.110393V201.90264H635.594074c-9.467751 0-17.110393-7.642642-17.110393-17.110393s7.642642-17.110393 17.110393-17.110393h208.974936c9.467751 0 17.110393 7.642642 17.110393 17.110393v184.564108c0 9.467751-7.642642 17.110393-17.110393 17.110393zM362.284059 856.318146H153.309123c-9.467751 0-17.110393-7.642642-17.110393-17.110393V654.643645c0-9.467751 7.642642-17.110393 17.110393-17.110393s17.110393 7.642642 17.110394 17.110393v167.453715h191.864542c9.467751 0 17.110393 7.642642 17.110393 17.110393s-7.642642 17.110393-17.110393 17.110393zM844.56901 856.318146H635.594074c-9.467751 0-17.110393-7.642642-17.110393-17.110393s7.642642-17.110393 17.110393-17.110393h191.864542V654.643645c0-9.467751 7.642642-17.110393 17.110394-17.110393s17.110393 7.642642 17.110393 17.110393v184.564108c0 9.467751-7.642642 17.110393-17.110393 17.110393z" p-id="5372" fill="#d81e06"></path></svg>