<?xml version="1.0" standalone="no"?><!DOCTYPE svg PUBLIC "-//W3C//DTD SVG 1.1//EN" "http://www.w3.org/Graphics/SVG/1.1/DTD/svg11.dtd"><svg t="1620874375548" class="icon" viewBox="0 0 1116 1024" version="1.1" xmlns="http://www.w3.org/2000/svg" p-id="3059" xmlns:xlink="http://www.w3.org/1999/xlink" width="217.96875" height="200"><defs><style type="text/css"></style></defs><path d="M557.176471 1022.431373c-62.27451 0-116.392157-20.078431-155.607844-57.254902l-0.941176-0.941177H87.372549c-48.156863 0-87.372549-39.215686-87.372549-87.372549V87.843137C0 39.686275 39.215686 0.470588 87.372549 0.470588h299.137255c65.254902 0 126.431373 29.176471 167.686274 80.313726l4.078432 4.078431 4.078431-4.078431C603.45098 29.647059 664.784314 0.470588 730.039216 0.470588H1029.176471c48.156863 0 87.372549 39.215686 87.372549 87.372549v790.117647c0 48.156863-39.215686 87.372549-87.372549 87.372549H713.882353l-0.941177 0.941177c-39.372549 37.176471-93.490196 56.156863-155.764705 56.156863zM727.843137 52.705882c-90.352941 10.980392-138.509804 50.196078-138.509804 112.470589v802.196078l5.019608-0.941176c27.137255-5.960784 51.137255-19.137255 69.333334-39.215687l2.980392-4.078431c5.019608-8 12.078431-13.019608 15.058823-13.019608h378.509804l-2.039216-857.411765H727.843137zM450.666667 928.156863c18.039216 19.137255 42.196078 32.156863 72.313725 38.117647l5.019608 0.941176V165.176471c0-78.27451-76.235294-108.392157-141.490196-111.372549H53.176471v857.411764h378.509804c2.039216 0 12.078431 7.058824 16 13.019608l2.980392 3.921569z m0 0" p-id="3060"></path></svg>